<svg id="Layer_1" data-name="Layer 1" xmlns="http://www.w3.org/2000/svg" xmlns:xlink="http://www.w3.org/1999/xlink" viewBox="0 0 1700.79 1700.79"><defs><style>.cls-1{fill:url(#linear-gradient);}</style><linearGradient id="linear-gradient" x1="850.39" y1="1536.24" x2="850.39" y2="164.54" gradientUnits="userSpaceOnUse"><stop offset="0" stop-color="#00c5f0"/><stop offset="1" stop-color="#01f67c"/></linearGradient></defs><path class="cls-1" d="M986.4,1402.68a97.79,97.79,0,0,1,1.83,18c0,63.81-61.41,115.54-137.17,115.54s-137.17-51.73-137.17-115.54a97.79,97.79,0,0,1,1.84-18c10.29,55.24,66.87,97.53,135.33,97.53S976.11,1457.92,986.4,1402.68Zm-17.18-147.57S919.79,1143.27,914.85,1058s7.82-139.23-25.13-165.59c0,0-2.82,53.55-39.1,49-36.28,4.53-39.1-49-39.1-49-32.95,26.36-20.18,80.32-25.13,165.59S732,1255.11,732,1255.11c77.23-86.51,72.5-248.6,72.5-248.6,1.23,5.77,7.41,16.89,13.59,22.66s12.77,9.06,12.77,16.47,19.74,123.17,19.74,123.17,19.74-115.75,19.74-123.17,6.59-10.71,12.77-16.47,12.35-16.89,13.59-22.66C896.72,1006.51,892,1168.6,969.22,1255.11ZM850.62,760c-7.76,0-14.69,7.64-14,17,1.48,21.52,7.6,23.17,14,93.81,3.43-49,14-71,14-93.81C864.66,767.57,858.37,760,850.62,760ZM909,807c8.74-9.38,13.68-13.8,12.23-24.56-1.38-10.23-14.18-15.66-22.83-1.65-27.74,44.91-28,111.63-28,111.63C872.07,879.64,886.7,831,909,807Zm-77.86,85.42s-.27-66.72-28-111.63c-8.65-14-21.45-8.58-22.83,1.65-1.45,10.76,3.49,15.18,12.23,24.56C814.91,831,829.54,879.64,831.18,892.41Zm19.44-144.58s-289.2-281.76,0-583.29C850.62,164.54,1144.7,404.28,850.62,747.83ZM908,336.62c0-39.73-8.42-75-21.49-97.84,4.66,16.33,7.41,36.09,7.41,57.42,0,23.92-3.46,45.87-9.21,63.2a164.24,164.24,0,0,0,1.56-22.78c0-42.14-15.4-76.3-34.4-76.3s-34.41,34.16-34.41,76.3A162.93,162.93,0,0,0,819,359.41c-5.75-17.34-9.21-39.29-9.21-63.21,0-21.33,2.74-41.09,7.41-57.42-13.07,22.8-21.49,58.1-21.49,97.84,0,68.77,25.13,124.51,56.13,124.51S908,405.39,908,336.62ZM1270,663c-38.72,156.38-311.83,318.41-316.36,510.78,0,0-69.25-350.32,62.62-570.1C1118.81,432.71,1270,409.23,1270,409.23S1306.22,516.63,1270,663Zm-38.55-138.56c-2,15.44-7,33.06-14.88,51-8.9,20.12-20.09,37.31-31.57,49.79a147.12,147.12,0,0,0,9.84-18.58c15.68-35.45,14.92-69.83-1.7-76.78s-42.8,16.14-58.48,51.59a145.77,145.77,0,0,0-7.11,19.73c1.42-16.69,6.57-36.41,15.47-56.53,7.93-17.94,17.69-33.56,27.84-45.59-19.91,14.39-40.42,41-55.2,74.43-25.59,57.84-24.35,113.92,2.77,125.27s69.83-26.33,95.42-84.17C1228.62,581.14,1234.39,548.36,1231.44,524.41Zm291.47,179.12s-5.72,133.81-93.92,232.13c-113.07,126.05-365.79,182.28-428.81,360.85,0,0,7.83-327.89,263.22-477.16C1361.76,761.86,1457.05,725.86,1522.91,703.53ZM1456.28,815a127.65,127.65,0,0,1-19.54,35c-10.13,13.1-21.64,23.48-32.68,30.25a99.34,99.34,0,0,0,10.65-11.73c17.84-23.09,22.41-49.1,10.2-58.11s-36.57,2.41-54.41,25.49a99,99,0,0,0-8.65,13.22c3.65-12.22,10.72-25.88,20.85-39a130.12,130.12,0,0,1,29.07-27.94c-18,6.29-38.41,21.64-55.24,43.4-29.11,37.66-36.56,80.1-16.64,94.8s59.67-3.92,88.78-41.58C1445.5,857,1455,833.68,1456.28,815Zm-68.07,391.29c-118.22,33.37-234.38,66.32-358.78,185.78,0,0-11.46-163.12,256.66-299,111.07-56.32,210.63-87.89,297-120.13C1583.06,972.89,1591.74,1148.85,1388.21,1206.29Zm153.07-146.7a108.24,108.24,0,0,1-22.08,25.88c-10.61,9.23-21.92,16-32.23,19.77a83.78,83.78,0,0,0,10.81-8c18.69-16.27,26.81-37.18,18.13-46.7s-30.85-4.07-49.54,12.2a83.55,83.55,0,0,0-9.39,9.57c5.07-9.57,13.22-19.77,23.83-29a110.26,110.26,0,0,1,28.84-18.44c-16.07,2.25-35.58,11.65-53.2,27-30.49,26.53-43.74,60.64-29.58,76.19s50.34,6.63,80.83-19.91C1525.32,1092.79,1537.14,1074.94,1541.28,1059.59ZM671.36,1392.07C547,1272.61,430.8,1239.66,312.58,1206.29c-203.53-57.44-194.85-233.4-194.85-233.4,86.34,32.24,185.89,63.81,297,120.13C682.82,1229,671.36,1392.07,671.36,1392.07ZM244.53,1051.85c-17.62-15.34-37.12-24.74-53.2-27a110.47,110.47,0,0,1,28.85,18.44c10.61,9.24,18.76,19.44,23.82,29a82.73,82.73,0,0,0-9.39-9.57c-18.68-16.27-40.87-21.73-49.54-12.2s-.56,30.43,18.13,46.7a83.18,83.18,0,0,0,10.82,8c-10.32-3.81-21.63-10.54-32.23-19.77a108.24,108.24,0,0,1-22.08-25.88c4.14,15.35,15.95,33.2,33.57,48.54,30.49,26.54,66.69,35.45,80.84,19.91S275,1078.38,244.53,1051.85Zm1225.65,211.7s-117.81,182.07-436.63,169.71C1033.55,1433.26,1135.7,1272.61,1470.18,1263.55Zm-66.25,41.3a61.53,61.53,0,0,1-15.52,11.56,60.77,60.77,0,0,1-20.38,6.9,47.75,47.75,0,0,0,7-3.07c12.43-6.66,19.57-17.24,16-23.62s-16.61-6.15-29,.51a46.79,46.79,0,0,0-6.42,4.12,59.62,59.62,0,0,1,16.88-13.08,62.79,62.79,0,0,1,18.34-6.58c-9.2-.79-21.21,2-32.93,8.24-20.27,10.87-31.93,28.12-26,38.53s27.09,10,47.36-.83C1390.88,1321.25,1399.69,1312.84,1403.93,1304.85Zm-656.78-131.1C742.62,981.38,469.52,819.35,430.8,663c-36.23-146.34,0-253.74,0-253.74S582,432.71,684.54,603.65C816.41,823.43,747.15,1173.75,747.15,1173.75Zm-162-600.28c-14.79-33.42-35.29-60-55.2-74.43,10.15,12,19.91,27.65,27.84,45.59,8.9,20.12,14,39.84,15.47,56.53a145.77,145.77,0,0,0-7.11-19.73c-15.68-35.45-41.87-58.55-58.49-51.59s-17.37,41.33-1.69,76.78a145.84,145.84,0,0,0,9.84,18.58c-11.48-12.48-22.67-29.67-31.57-49.79-7.94-17.94-12.89-35.56-14.88-51-3,24,2.82,56.73,17.6,90.16,25.59,57.84,68.31,95.52,95.42,84.17S610.73,631.31,585.14,573.47Zm115.47,723c-63-178.57-315.74-234.8-428.81-360.85-88.21-98.32-93.92-232.13-93.92-232.13C243.74,725.86,339,761.86,437.39,819.35,692.78,968.62,700.61,1296.51,700.61,1296.51ZM344.25,825.56c-16.82-21.76-37.18-37.11-55.23-43.4a130.12,130.12,0,0,1,29.07,27.94c10.13,13.1,17.2,26.76,20.84,39a97.89,97.89,0,0,0-8.64-13.22c-17.84-23.08-42.2-34.49-54.41-25.49s-7.64,35,10.2,58.11a99.34,99.34,0,0,0,10.65,11.73c-11-6.77-22.55-17.15-32.68-30.25a127.7,127.7,0,0,1-19.55-35c1.26,18.68,10.79,42,27.62,63.78,29.11,37.66,68.85,56.27,88.78,41.58S373.36,863.22,344.25,825.56Zm323,607.7c-318.83,12.36-436.64-169.71-436.64-169.71C565.08,1272.61,667.24,1433.26,667.24,1433.26Zm-324.3-143.43c-11.72-6.28-23.73-9-32.93-8.24a62.64,62.64,0,0,1,18.33,6.58,59.54,59.54,0,0,1,16.89,13.08,46.79,46.79,0,0,0-6.42-4.12c-12.42-6.66-25.42-6.89-29-.51s3.54,17,16,23.62a47.39,47.39,0,0,0,7,3.07,60.7,60.7,0,0,1-20.38-6.9,61.35,61.35,0,0,1-15.52-11.56c4.23,8,13,16.4,24.76,22.68,20.27,10.87,41.47,11.24,47.36.83S363.21,1300.7,342.94,1289.83Z"/></svg>